<svg viewBox="0 0 345 62" fill="none" xmlns="http://www.w3.org/2000/svg">
<path d="M6.36719 27.0156C5.29427 27.0156 4.45052 27.3958 3.83594 28.1562C3.22135 28.9167 2.91406 29.9661 2.91406 31.3047C2.91406 32.7057 3.20833 33.7656 3.79688 34.4844C4.39062 35.2031 5.2474 35.5625 6.36719 35.5625C6.85156 35.5625 7.32031 35.5156 7.77344 35.4219C8.22656 35.3229 8.69792 35.1979 9.1875 35.0469V36.6484C8.29167 36.987 7.27604 37.1562 6.14062 37.1562C4.46875 37.1562 3.1849 36.651 2.28906 35.6406C1.39323 34.625 0.945312 33.1745 0.945312 31.2891C0.945312 30.1016 1.16146 29.0625 1.59375 28.1719C2.03125 27.2812 2.66146 26.599 3.48438 26.125C4.30729 25.651 5.27344 25.4141 6.38281 25.4141C7.54948 25.4141 8.6276 25.6589 9.61719 26.1484L8.94531 27.7031C8.5599 27.5208 8.15104 27.362 7.71875 27.2266C7.29167 27.0859 6.84115 27.0156 6.36719 27.0156ZM16.4141 35.2422L16.5156 34.8672C16.7292 34.0911 16.9141 33.4948 17.0703 33.0781L19.0078 28.3594H21.4531V37H19.7578V30.0234L19.6172 30.4922C19.3828 31.3307 19.1849 31.9479 19.0234 32.3438L17.1328 37H15.7422L13.8516 32.3125C13.5911 31.6354 13.3516 30.8724 13.1328 30.0234V37H11.4531V28.3594H13.8828L15.7578 32.9375C15.9245 33.3594 16.1432 34.1276 16.4141 35.2422ZM31.7422 32.6641C31.7422 34.0755 31.3802 35.1771 30.6562 35.9688C29.9323 36.7604 28.9245 37.1562 27.6328 37.1562C26.8255 37.1562 26.112 36.974 25.4922 36.6094C24.8724 36.2448 24.3958 35.7214 24.0625 35.0391C23.7292 34.3568 23.5625 33.5651 23.5625 32.6641C23.5625 31.263 23.9219 30.1693 24.6406 29.3828C25.3594 28.5964 26.3724 28.2031 27.6797 28.2031C28.9297 28.2031 29.9193 28.6068 30.6484 29.4141C31.3776 30.2161 31.7422 31.2995 31.7422 32.6641ZM25.4531 32.6641C25.4531 34.6589 26.1901 35.6562 27.6641 35.6562C29.1224 35.6562 29.8516 34.6589 29.8516 32.6641C29.8516 30.6901 29.1172 29.7031 27.6484 29.7031C26.8776 29.7031 26.3177 29.9583 25.9688 30.4688C25.625 30.9792 25.4531 31.7109 25.4531 32.6641ZM40.3516 28.3594V29.7969H37.5391V37H35.6953V29.7969H32.8828V28.3594H40.3516ZM46.3984 37.1562C45.3047 37.1562 44.4557 36.763 43.8516 35.9766H43.7422C43.8151 36.7057 43.8516 37.1484 43.8516 37.3047V40.8438H42.0156V28.3594H43.5C43.5417 28.5208 43.6276 28.9062 43.7578 29.5156H43.8516C44.4245 28.6406 45.2839 28.2031 46.4297 28.2031C47.5078 28.2031 48.3464 28.5938 48.9453 29.375C49.5495 30.1562 49.8516 31.2526 49.8516 32.6641C49.8516 34.0755 49.5443 35.1771 48.9297 35.9688C48.3203 36.7604 47.4766 37.1562 46.3984 37.1562ZM45.9531 29.7031C45.224 29.7031 44.6901 29.9167 44.3516 30.3438C44.0182 30.7708 43.8516 31.4531 43.8516 32.3906V32.6641C43.8516 33.7161 44.0182 34.4792 44.3516 34.9531C44.6849 35.4219 45.2292 35.6562 45.9844 35.6562C46.6198 35.6562 47.1094 35.3958 47.4531 34.875C47.7969 34.3542 47.9688 33.612 47.9688 32.6484C47.9688 31.6797 47.7969 30.9479 47.4531 30.4531C47.1146 29.9531 46.6146 29.7031 45.9531 29.7031ZM55.7578 37.1562C54.4141 37.1562 53.362 36.7656 52.6016 35.9844C51.8464 35.1979 51.4688 34.1172 51.4688 32.7422C51.4688 31.3307 51.8203 30.2214 52.5234 29.4141C53.2266 28.6068 54.1927 28.2031 55.4219 28.2031C56.5625 28.2031 57.4635 28.5495 58.125 29.2422C58.7865 29.9349 59.1172 30.888 59.1172 32.1016V33.0938H53.3594C53.3854 33.9323 53.612 34.5781 54.0391 35.0312C54.4661 35.4792 55.0677 35.7031 55.8438 35.7031C56.3542 35.7031 56.8281 35.6562 57.2656 35.5625C57.7083 35.4635 58.1823 35.3021 58.6875 35.0781V36.5703C58.2396 36.7839 57.7865 36.9349 57.3281 37.0234C56.8698 37.112 56.3464 37.1562 55.7578 37.1562ZM55.4219 29.5938C54.8385 29.5938 54.3698 29.7786 54.0156 30.1484C53.6667 30.5182 53.4583 31.0573 53.3906 31.7656H57.3125C57.3021 31.0521 57.1302 30.513 56.7969 30.1484C56.4635 29.7786 56.0052 29.5938 55.4219 29.5938ZM67.6953 28.3594V29.7969H64.8828V37H63.0391V29.7969H60.2266V28.3594H67.6953ZM71.1953 31.8125H73.3594C75.7708 31.8125 76.9766 32.6458 76.9766 34.3125C76.9766 35.1927 76.6693 35.862 76.0547 36.3203C75.4401 36.7734 74.5417 37 73.3594 37H69.3594V28.3594H71.1953V31.8125ZM75.1328 34.3594C75.1328 33.9271 74.9688 33.625 74.6406 33.4531C74.3125 33.2812 73.849 33.1953 73.25 33.1953H71.1953V35.6406H73.2812C73.8854 35.6406 74.3438 35.5312 74.6562 35.3125C74.974 35.0938 75.1328 34.776 75.1328 34.3594Z" fill="currentColor"/>
<path d="M293 52.2132C297.178 56.4088 302.501 59.266 308.297 60.4235C314.092 61.5811 320.099 60.987 325.558 58.7164C331.017 56.4457 335.682 52.6006 338.965 47.6671C342.248 42.7336 344 36.9334 344 31C344 25.0666 342.248 19.2664 338.965 14.3329C335.682 9.39943 331.017 5.55425 325.558 3.28363C320.099 1.013 314.092 0.4189 308.297 1.57646C302.501 2.73401 297.178 5.59123 293 9.78681" stroke="currentColor" stroke-width="2" stroke-linecap="round"/>
<path d="M258 31L318 31" stroke="currentColor" stroke-width="2" stroke-linecap="round" stroke-linejoin="round"/>
<path d="M311 24L318 31L311 38" stroke="currentColor" stroke-width="2" stroke-linecap="round" stroke-linejoin="round"/>
</svg>
