<svg viewBox="0 0 24 24" fill="none" xmlns="http://www.w3.org/2000/svg">
<path d="M16.4795 10.41C16.0895 10.8 15.4395 10.8 15.0495 10.41L10.5795 5.95005L3.52955 12.99L2.86955 12.36C2.30775 11.7975 1.99219 11.0351 1.99219 10.24C1.99219 9.44505 2.30775 8.68255 2.86955 8.12005L7.10955 3.88005C7.67205 3.31825 8.43454 3.00269 9.22955 3.00269C10.0245 3.00269 10.787 3.31825 11.3495 3.88005L16.4795 9.00005C16.8695 9.39005 16.8695 10.0201 16.4795 10.41ZM17.1795 8.29005C17.9595 9.07005 17.9595 10.34 17.1795 11.12C15.9095 12.39 14.5695 11.34 14.3495 11.12L10.5895 7.36005L5.01955 12.93C4.92684 13.0226 4.8533 13.1325 4.80311 13.2534C4.75293 13.3744 4.7271 13.5041 4.7271 13.635C4.7271 13.766 4.75293 13.8957 4.80311 14.0167C4.8533 14.1376 4.92684 14.2475 5.01955 14.34C5.40955 14.7301 6.03955 14.7301 6.43955 14.34L11.0595 9.72005L11.7695 10.4301L7.14955 15.05C7.05684 15.1426 6.9833 15.2525 6.93312 15.3734C6.88293 15.4944 6.8571 15.6241 6.8571 15.755C6.8571 15.886 6.88293 16.0157 6.93312 16.1367C6.9833 16.2576 7.05684 16.3675 7.14955 16.46C7.53955 16.85 8.16955 16.85 8.56955 16.46L13.1895 11.84L13.8995 12.55L9.27955 17.17C9.18697 17.2626 9.11353 17.3725 9.06342 17.4935C9.01332 17.6145 8.98753 17.7441 8.98753 17.875C8.98753 18.006 9.01332 18.1356 9.06342 18.2566C9.11353 18.3776 9.18697 18.4875 9.27955 18.58C9.37213 18.6726 9.48204 18.7461 9.603 18.7962C9.72397 18.8463 9.85362 18.8721 9.98455 18.8721C10.1155 18.8721 10.2451 18.8463 10.3661 18.7962C10.4871 18.7461 10.597 18.6726 10.6895 18.58L15.3095 13.96L16.0195 14.67L11.3995 19.2901C11.307 19.3826 11.2335 19.4925 11.1834 19.6135C11.1333 19.7345 11.1075 19.8641 11.1075 19.9951C11.1075 20.126 11.1333 20.2556 11.1834 20.3766C11.2335 20.4976 11.307 20.6075 11.3995 20.7001C11.5865 20.887 11.8401 20.9921 12.1045 20.9921C12.2355 20.9921 12.3651 20.9663 12.4861 20.9162C12.6071 20.8661 12.717 20.7926 12.8095 20.7001L21.1295 12.36C21.6913 11.7975 22.0069 11.0351 22.0069 10.24C22.0069 9.44505 21.6913 8.68255 21.1295 8.12005L16.8895 3.88005C16.3374 3.32848 15.5921 3.01371 14.8117 3.00251C14.0313 2.99131 13.2773 3.28455 12.7095 3.82005L17.1795 8.29005Z" fill="#BC3324"/>
</svg>
