<svg viewBox="0 0 128 133" fill="none" xmlns="http://www.w3.org/2000/svg">
<path d="M42.7868 81C38.5912 85.1781 35.734 90.5013 34.5765 96.2966C33.4189 102.092 34.013 108.099 36.2836 113.558C38.5543 119.017 42.3994 123.682 47.3329 126.965C52.2664 130.248 58.0666 132 64 132C69.9334 132 75.7336 130.248 80.6671 126.965C85.6006 123.682 89.4457 119.017 91.7164 113.558C93.987 108.099 94.5811 102.092 93.4235 96.2965C92.266 90.5013 89.4088 85.1781 85.2132 81" stroke="currentColor" stroke-width="2" stroke-linecap="round"/>
<g clip-path="url(#clip0_1795_3292)">
<path d="M64 46L64 106" stroke="currentColor" stroke-width="2" stroke-linecap="round" stroke-linejoin="round"/>
<path d="M71 99L64 106L57 99" stroke="currentColor" stroke-width="2" stroke-linecap="round" stroke-linejoin="round"/>
</g>
<path d="M8.98438 18V6.57812H17.7578V18H15.8984V8.17188H10.8594V18H8.98438ZM28.25 13.6562C28.25 14.375 28.1562 15.013 27.9688 15.5703C27.7812 16.1276 27.5078 16.599 27.1484 16.9844C26.7891 17.3646 26.3568 17.6562 25.8516 17.8594C25.3464 18.0573 24.776 18.1562 24.1406 18.1562C23.5469 18.1562 23.0026 18.0573 22.5078 17.8594C22.013 17.6562 21.5833 17.3646 21.2188 16.9844C20.8594 16.599 20.5807 16.1276 20.3828 15.5703C20.1849 15.013 20.0859 14.375 20.0859 13.6562C20.0859 12.7031 20.25 11.8958 20.5781 11.2344C20.9115 10.5677 21.3854 10.0599 22 9.71094C22.6146 9.36198 23.3464 9.1875 24.1953 9.1875C24.9922 9.1875 25.6953 9.36198 26.3047 9.71094C26.9141 10.0599 27.3906 10.5677 27.7344 11.2344C28.0781 11.901 28.25 12.7083 28.25 13.6562ZM21.9766 13.6562C21.9766 14.2865 22.0521 14.8255 22.2031 15.2734C22.3594 15.7214 22.599 16.0651 22.9219 16.3047C23.2448 16.5391 23.6615 16.6562 24.1719 16.6562C24.6823 16.6562 25.099 16.5391 25.4219 16.3047C25.7448 16.0651 25.9818 15.7214 26.1328 15.2734C26.2839 14.8255 26.3594 14.2865 26.3594 13.6562C26.3594 13.026 26.2839 12.4922 26.1328 12.0547C25.9818 11.612 25.7448 11.276 25.4219 11.0469C25.099 10.8125 24.6797 10.6953 24.1641 10.6953C23.4036 10.6953 22.849 10.9505 22.5 11.4609C22.151 11.9714 21.9766 12.7031 21.9766 13.6562ZM35.7188 9.35156H37.7422L34.1641 13.5078L38.0469 18H35.9297L32.2031 13.6094V18H30.3594V9.35156H32.2031V13.5469L35.7188 9.35156ZM42.8438 9.1875C43.9375 9.1875 44.763 9.42969 45.3203 9.91406C45.8828 10.3984 46.1641 11.1536 46.1641 12.1797V18H44.8594L44.5078 16.7734H44.4453C44.2005 17.0859 43.9479 17.3438 43.6875 17.5469C43.4271 17.75 43.125 17.901 42.7812 18C42.4427 18.1042 42.0286 18.1562 41.5391 18.1562C41.0234 18.1562 40.5625 18.0625 40.1562 17.875C39.75 17.6823 39.4297 17.3906 39.1953 17C38.9609 16.6094 38.8438 16.1146 38.8438 15.5156C38.8438 14.625 39.1745 13.9557 39.8359 13.5078C40.5026 13.0599 41.5078 12.8125 42.8516 12.7656L44.3516 12.7109V12.2578C44.3516 11.6589 44.2109 11.2318 43.9297 10.9766C43.6536 10.7214 43.263 10.5938 42.7578 10.5938C42.3255 10.5938 41.9062 10.6562 41.5 10.7812C41.0938 10.9062 40.6979 11.0599 40.3125 11.2422L39.7188 9.94531C40.1406 9.72135 40.6198 9.53906 41.1562 9.39844C41.6979 9.25781 42.2604 9.1875 42.8438 9.1875ZM44.3438 13.8672L43.2266 13.9062C42.3099 13.9375 41.6667 14.0938 41.2969 14.375C40.9271 14.6562 40.7422 15.0417 40.7422 15.5312C40.7422 15.9583 40.8698 16.2708 41.125 16.4688C41.3802 16.6615 41.7161 16.7578 42.1328 16.7578C42.7682 16.7578 43.2943 16.5781 43.7109 16.2188C44.1328 15.8542 44.3438 15.3203 44.3438 14.6172V13.8672ZM51.4219 9.1875C52.0573 9.1875 52.6276 9.27344 53.1328 9.44531C53.6432 9.61198 54.0469 9.86458 54.3438 10.2031C54.6406 10.5417 54.7891 10.9635 54.7891 11.4688C54.7891 11.9896 54.638 12.4062 54.3359 12.7188C54.0391 13.026 53.6354 13.2474 53.125 13.3828V13.4531C53.4844 13.5417 53.8099 13.6693 54.1016 13.8359C54.3932 13.9974 54.625 14.2161 54.7969 14.4922C54.974 14.763 55.0625 15.112 55.0625 15.5391C55.0625 16.0234 54.9193 16.4635 54.6328 16.8594C54.3516 17.2552 53.9193 17.5703 53.3359 17.8047C52.7526 18.0391 52.0104 18.1562 51.1094 18.1562C50.6771 18.1562 50.2656 18.1328 49.875 18.0859C49.4896 18.0443 49.138 17.9844 48.8203 17.9062C48.5026 17.8229 48.2266 17.724 47.9922 17.6094V16.0312C48.3516 16.2031 48.7865 16.3594 49.2969 16.5C49.8073 16.6354 50.3542 16.7031 50.9375 16.7031C51.3698 16.7031 51.7604 16.6641 52.1094 16.5859C52.4635 16.5026 52.7422 16.3672 52.9453 16.1797C53.1536 15.9922 53.2578 15.7422 53.2578 15.4297C53.2578 15.1432 53.1667 14.9062 52.9844 14.7188C52.8021 14.5312 52.5286 14.3932 52.1641 14.3047C51.7995 14.2109 51.3385 14.1641 50.7812 14.1641H49.75V12.8125H50.6562C51.4219 12.8125 52.0208 12.7292 52.4531 12.5625C52.8906 12.3906 53.1094 12.0938 53.1094 11.6719C53.1094 11.3177 52.9557 11.0521 52.6484 10.875C52.3411 10.6979 51.8698 10.6094 51.2344 10.6094C50.7969 10.6094 50.3646 10.6589 49.9375 10.7578C49.5104 10.8516 49.0833 10.987 48.6562 11.1641L48.0781 9.8125C48.5521 9.61979 49.0599 9.46875 49.6016 9.35938C50.1432 9.24479 50.75 9.1875 51.4219 9.1875ZM60.4375 9.1875C61.5312 9.1875 62.3568 9.42969 62.9141 9.91406C63.4766 10.3984 63.7578 11.1536 63.7578 12.1797V18H62.4531L62.1016 16.7734H62.0391C61.7943 17.0859 61.5417 17.3438 61.2812 17.5469C61.0208 17.75 60.7188 17.901 60.375 18C60.0365 18.1042 59.6224 18.1562 59.1328 18.1562C58.6172 18.1562 58.1562 18.0625 57.75 17.875C57.3438 17.6823 57.0234 17.3906 56.7891 17C56.5547 16.6094 56.4375 16.1146 56.4375 15.5156C56.4375 14.625 56.7682 13.9557 57.4297 13.5078C58.0964 13.0599 59.1016 12.8125 60.4453 12.7656L61.9453 12.7109V12.2578C61.9453 11.6589 61.8047 11.2318 61.5234 10.9766C61.2474 10.7214 60.8568 10.5938 60.3516 10.5938C59.9193 10.5938 59.5 10.6562 59.0938 10.7812C58.6875 10.9062 58.2917 11.0599 57.9062 11.2422L57.3125 9.94531C57.7344 9.72135 58.2135 9.53906 58.75 9.39844C59.2917 9.25781 59.8542 9.1875 60.4375 9.1875ZM61.9375 13.8672L60.8203 13.9062C59.9036 13.9375 59.2604 14.0938 58.8906 14.375C58.5208 14.6562 58.3359 15.0417 58.3359 15.5312C58.3359 15.9583 58.4635 16.2708 58.7188 16.4688C58.974 16.6615 59.3099 16.7578 59.7266 16.7578C60.362 16.7578 60.888 16.5781 61.3047 16.2188C61.7266 15.8542 61.9375 15.3203 61.9375 14.6172V13.8672ZM72.8594 10.7969H70.0156V18H68.1875V10.7969H65.3594V9.35156H72.8594V10.7969ZM76.375 12.8047H78.5234C79.3359 12.8047 80.0078 12.8984 80.5391 13.0859C81.0755 13.2682 81.4766 13.5443 81.7422 13.9141C82.0078 14.2839 82.1406 14.7474 82.1406 15.3047C82.1406 15.8516 82.0156 16.3281 81.7656 16.7344C81.5156 17.1354 81.125 17.4479 80.5938 17.6719C80.0677 17.8906 79.3802 18 78.5312 18H74.5312V9.35156H76.375V12.8047ZM80.2969 15.3516C80.2969 14.9193 80.1354 14.6146 79.8125 14.4375C79.4896 14.2552 79.0286 14.1641 78.4297 14.1641H76.375V16.6484H78.4453C78.9922 16.6484 79.4375 16.5495 79.7812 16.3516C80.125 16.1484 80.2969 15.8151 80.2969 15.3516ZM91.7734 9.1875C92.5443 9.1875 93.2057 9.34635 93.7578 9.66406C94.3099 9.98177 94.7344 10.4323 95.0312 11.0156C95.3281 11.599 95.4766 12.2969 95.4766 13.1094V14.0938H89.7031C89.724 14.9323 89.9479 15.5781 90.375 16.0312C90.8073 16.4844 91.4115 16.7109 92.1875 16.7109C92.7396 16.7109 93.2344 16.6589 93.6719 16.5547C94.1146 16.4453 94.5703 16.2865 95.0391 16.0781V17.5703C94.6068 17.7734 94.1667 17.9219 93.7188 18.0156C93.2708 18.1094 92.7344 18.1562 92.1094 18.1562C91.2604 18.1562 90.513 17.9922 89.8672 17.6641C89.2266 17.3307 88.724 16.8359 88.3594 16.1797C88 15.5234 87.8203 14.7083 87.8203 13.7344C87.8203 12.7656 87.9844 11.9427 88.3125 11.2656C88.6406 10.5885 89.1016 10.0729 89.6953 9.71875C90.2891 9.36458 90.9818 9.1875 91.7734 9.1875ZM91.7734 10.5703C91.1953 10.5703 90.7266 10.7578 90.3672 11.1328C90.013 11.5078 89.8047 12.0573 89.7422 12.7812H93.6797C93.6745 12.349 93.6016 11.9661 93.4609 11.6328C93.3255 11.2995 93.1172 11.0391 92.8359 10.8516C92.5599 10.6641 92.2057 10.5703 91.7734 10.5703ZM109.789 9.35156V16.5859H111.039V21.0391H109.312V18H97.5469V9.35156H99.3828V16.5547H102.742V9.35156H104.586V16.5547H107.953V9.35156H109.789ZM116.055 9.1875C116.826 9.1875 117.487 9.34635 118.039 9.66406C118.591 9.98177 119.016 10.4323 119.312 11.0156C119.609 11.599 119.758 12.2969 119.758 13.1094V14.0938H113.984C114.005 14.9323 114.229 15.5781 114.656 16.0312C115.089 16.4844 115.693 16.7109 116.469 16.7109C117.021 16.7109 117.516 16.6589 117.953 16.5547C118.396 16.4453 118.852 16.2865 119.32 16.0781V17.5703C118.888 17.7734 118.448 17.9219 118 18.0156C117.552 18.1094 117.016 18.1562 116.391 18.1562C115.542 18.1562 114.794 17.9922 114.148 17.6641C113.508 17.3307 113.005 16.8359 112.641 16.1797C112.281 15.5234 112.102 14.7083 112.102 13.7344C112.102 12.7656 112.266 11.9427 112.594 11.2656C112.922 10.5885 113.383 10.0729 113.977 9.71875C114.57 9.36458 115.263 9.1875 116.055 9.1875ZM116.055 10.5703C115.477 10.5703 115.008 10.7578 114.648 11.1328C114.294 11.5078 114.086 12.0573 114.023 12.7812H117.961C117.956 12.349 117.883 11.9661 117.742 11.6328C117.607 11.2995 117.398 11.0391 117.117 10.8516C116.841 10.6641 116.487 10.5703 116.055 10.5703Z" fill="currentColor"/>
<defs>
<clipPath id="clip0_1795_3292">
<rect width="70" height="24" fill="white" transform="translate(76 41) rotate(90)"/>
</clipPath>
</defs>
</svg>
