<?xml version="1.0" standalone="no"?>
<!DOCTYPE svg PUBLIC "-//W3C//DTD SVG 20010904//EN"
 "http://www.w3.org/TR/2001/REC-SVG-20010904/DTD/svg10.dtd">
<svg version="1.0" xmlns="http://www.w3.org/2000/svg"
 width="808.000000pt" height="808.000000pt" viewBox="0 0 808.000000 808.000000"
 preserveAspectRatio="xMidYMid meet">
<metadata>
Created by potrace 1.14, written by Peter Selinger 2001-2017
</metadata>
<g transform="translate(0.000000,808.000000) scale(0.100000,-0.100000)"
fill="#000000" stroke="none">
<path d="M0 4040 l0 -2940 2940 0 2940 0 1 38 c1 20 0 42 -1 47 -1 6 -1 35 0
65 1 30 2 60 2 65 -4 167 -1 290 7 298 6 6 25 9 43 8 18 -1 42 -2 53 -1 19 1
27 1 58 -1 6 0 28 0 47 0 19 1 43 1 53 1 20 0 60 0 85 0 9 0 31 0 47 -1 17 0
37 0 45 0 8 0 408 0 888 0 l872 1 0 840 0 840 -1087 1 c-599 1 -1093 1 -1100
0 -15 -2 -20 78 -13 207 3 52 2 96 -3 99 -4 2 -5 8 -3 12 7 10 12 393 6 466
-1 11 -1 25 -1 30 0 6 0 72 1 148 1 77 0 141 -2 143 -2 2 -2 27 1 56 3 29 4
94 1 143 -3 50 -3 132 0 183 3 52 2 96 -3 99 -4 2 -5 8 -3 12 7 10 12 393 6
466 -1 11 -1 25 -1 30 0 6 0 72 1 148 1 77 0 141 -2 143 -2 2 -2 27 1 56 3 29
4 94 1 143 -3 50 -3 132 0 183 3 52 2 96 -3 99 -4 2 -5 8 -3 12 7 10 12 393 6
466 -1 11 -1 25 -1 30 1 137 2 283 1 293 0 9 -595 12 -2940 12 l-2940 0 0
-2940z"/>
</g>
</svg>
